{
	"asset":{
		"generator":"Khronos glTF Blender I/O v5.0.21",
		"version":"2.0"
	},
	"scene":0,
	"scenes":[
		{
			"name":"Scene",
			"nodes":[
				7
			]
		}
	],
	"nodes":[
		{
			"name":"place-ear_l",
			"translation":[
				-0.7388049960136414,
				0.5296194553375244,
				0
			]
		},
		{
			"name":"place-ear_r",
			"translation":[
				0.7388054728507996,
				0.5296194553375244,
				0
			]
		},
		{
			"name":"place-eye_l",
			"translation":[
				-0.4893769919872284,
				0.9369237422943115,
				0.7368674874305725
			]
		},
		{
			"name":"place-eye_r",
			"translation":[
				0.4893771708011627,
				0.9369237422943115,
				0.7368674874305725
			]
		},
		{
			"name":"place-hat",
			"translation":[
				0,
				0.7394850254058838,
				0
			]
		},
		{
			"name":"place-mouth",
			"translation":[
				0,
				0.7523251175880432,
				0
			]
		},
		{
			"name":"place-nose",
			"translation":[
				0,
				0.8866569995880127,
				0.7298651337623596
			]
		},
		{
			"children":[
				0,
				1,
				2,
				3,
				4,
				5,
				6
			],
			"mesh":0,
			"name":"head"
		}
	],
	"materials":[
		{
			"doubleSided":true,
			"name":"head",
			"pbrMetallicRoughness":{
				"baseColorFactor":[
					0.9943643808364868,
					1,
					0.5503948926925659,
					1
				],
				"metallicFactor":0,
				"roughnessFactor":0.5
			}
		}
	],
	"meshes":[
		{
			"name":"Cylinder.002",
			"primitives":[
				{
					"attributes":{
						"POSITION":0,
						"NORMAL":1,
						"TEXCOORD_0":2
					},
					"indices":3,
					"material":0
				}
			]
		}
	],
	"accessors":[
		{
			"bufferView":0,
			"componentType":5126,
			"count":291,
			"max":[
				0.75,
				1.400201439857483,
				0.75
			],
			"min":[
				-0.75,
				5.960464477539062e-07,
				-0.75
			],
			"type":"VEC3"
		},
		{
			"bufferView":1,
			"componentType":5126,
			"count":291,
			"type":"VEC3"
		},
		{
			"bufferView":2,
			"componentType":5126,
			"count":291,
			"type":"VEC2"
		},
		{
			"bufferView":3,
			"componentType":5123,
			"count":948,
			"type":"SCALAR"
		}
	],
	"bufferViews":[
		{
			"buffer":0,
			"byteLength":3492,
			"byteOffset":0,
			"target":34962
		},
		{
			"buffer":0,
			"byteLength":3492,
			"byteOffset":3492,
			"target":34962
		},
		{
			"buffer":0,
			"byteLength":2328,
			"byteOffset":6984,
			"target":34962
		},
		{
			"buffer":0,
			"byteLength":1896,
			"byteOffset":9312,
			"target":34963
		}
	],
	"buffers":[
		{
			"byteLength":11208,
			"uri":"head.bin"
		}
	]
}
