{
	"asset":{
		"generator":"Khronos glTF Blender I/O v5.0.21",
		"version":"2.0"
	},
	"scene":0,
	"scenes":[
		{
			"name":"Scene",
			"nodes":[
				0
			]
		}
	],
	"nodes":[
		{
			"mesh":0,
			"name":"nose"
		}
	],
	"materials":[
		{
			"doubleSided":true,
			"name":"nose",
			"pbrMetallicRoughness":{
				"baseColorFactor":[
					0.4336860179901123,
					0.20915380120277405,
					0.15270960330963135,
					1
				],
				"metallicFactor":0,
				"roughnessFactor":0.5
			}
		}
	],
	"meshes":[
		{
			"name":"Cube",
			"primitives":[
				{
					"attributes":{
						"POSITION":0,
						"NORMAL":1,
						"TEXCOORD_0":2
					},
					"indices":3,
					"material":0
				}
			]
		}
	],
	"accessors":[
		{
			"bufferView":0,
			"componentType":5126,
			"count":41,
			"max":[
				0.22574028372764587,
				0.36887648701667786,
				0.4907970130443573
			],
			"min":[
				-0.2257402539253235,
				-0.34000033140182495,
				0
			],
			"type":"VEC3"
		},
		{
			"bufferView":1,
			"componentType":5126,
			"count":41,
			"type":"VEC3"
		},
		{
			"bufferView":2,
			"componentType":5126,
			"count":41,
			"type":"VEC2"
		},
		{
			"bufferView":3,
			"componentType":5123,
			"count":108,
			"type":"SCALAR"
		}
	],
	"bufferViews":[
		{
			"buffer":0,
			"byteLength":492,
			"byteOffset":0,
			"target":34962
		},
		{
			"buffer":0,
			"byteLength":492,
			"byteOffset":492,
			"target":34962
		},
		{
			"buffer":0,
			"byteLength":328,
			"byteOffset":984,
			"target":34962
		},
		{
			"buffer":0,
			"byteLength":216,
			"byteOffset":1312,
			"target":34963
		}
	],
	"buffers":[
		{
			"byteLength":1528,
			"uri":"nose.bin"
		}
	]
}
