{
	"asset":{
		"generator":"Khronos glTF Blender I/O v5.0.21",
		"version":"2.0"
	},
	"scene":0,
	"scenes":[
		{
			"name":"Scene",
			"nodes":[
				1
			]
		}
	],
	"nodes":[
		{
			"mesh":0,
			"name":"mouth.001",
			"translation":[
				0,
				-0.3189549446105957,
				0.776963472366333
			]
		},
		{
			"children":[
				0
			],
			"mesh":1,
			"name":"mouth_beard1"
		}
	],
	"materials":[
		{
			"doubleSided":true,
			"name":"mouth",
			"pbrMetallicRoughness":{
				"baseColorFactor":[
					0.042311422526836395,
					0.04518623277544975,
					0.030713459476828575,
					1
				],
				"metallicFactor":0,
				"roughnessFactor":0.5
			}
		},
		{
			"doubleSided":true,
			"name":"beard",
			"pbrMetallicRoughness":{
				"metallicFactor":0,
				"roughnessFactor":0.5
			}
		}
	],
	"meshes":[
		{
			"name":"Mesh",
			"primitives":[
				{
					"attributes":{
						"POSITION":0,
						"NORMAL":1,
						"TEXCOORD_0":2
					},
					"indices":3,
					"material":0
				}
			]
		},
		{
			"name":"Cylinder.009",
			"primitives":[
				{
					"attributes":{
						"POSITION":4,
						"NORMAL":5,
						"TEXCOORD_0":6
					},
					"indices":7,
					"material":1
				}
			]
		}
	],
	"accessors":[
		{
			"bufferView":0,
			"componentType":5126,
			"count":125,
			"max":[
				0.17635326087474823,
				0.04890654236078262,
				0.08844075351953506
			],
			"min":[
				-0.17635327577590942,
				-0.048906635493040085,
				-0.08844075351953506
			],
			"type":"VEC3"
		},
		{
			"bufferView":1,
			"componentType":5126,
			"count":125,
			"type":"VEC3"
		},
		{
			"bufferView":2,
			"componentType":5126,
			"count":125,
			"type":"VEC2"
		},
		{
			"bufferView":3,
			"componentType":5123,
			"count":576,
			"type":"SCALAR"
		},
		{
			"bufferView":4,
			"componentType":5126,
			"count":256,
			"max":[
				0.8066222071647644,
				-0.029033422470092773,
				0.8087435960769653
			],
			"min":[
				-0.8066222071647644,
				-1.0163869857788086,
				0.0959080159664154
			],
			"type":"VEC3"
		},
		{
			"bufferView":5,
			"componentType":5126,
			"count":256,
			"type":"VEC3"
		},
		{
			"bufferView":6,
			"componentType":5126,
			"count":256,
			"type":"VEC2"
		},
		{
			"bufferView":7,
			"componentType":5123,
			"count":684,
			"type":"SCALAR"
		}
	],
	"bufferViews":[
		{
			"buffer":0,
			"byteLength":1500,
			"byteOffset":0,
			"target":34962
		},
		{
			"buffer":0,
			"byteLength":1500,
			"byteOffset":1500,
			"target":34962
		},
		{
			"buffer":0,
			"byteLength":1000,
			"byteOffset":3000,
			"target":34962
		},
		{
			"buffer":0,
			"byteLength":1152,
			"byteOffset":4000,
			"target":34963
		},
		{
			"buffer":0,
			"byteLength":3072,
			"byteOffset":5152,
			"target":34962
		},
		{
			"buffer":0,
			"byteLength":3072,
			"byteOffset":8224,
			"target":34962
		},
		{
			"buffer":0,
			"byteLength":2048,
			"byteOffset":11296,
			"target":34962
		},
		{
			"buffer":0,
			"byteLength":1368,
			"byteOffset":13344,
			"target":34963
		}
	],
	"buffers":[
		{
			"byteLength":14712,
			"uri":"mouth_beard1.bin"
		}
	]
}
