{
	"asset":{
		"generator":"Khronos glTF Blender I/O v5.0.21",
		"version":"2.0"
	},
	"scene":0,
	"scenes":[
		{
			"name":"Scene",
			"nodes":[
				3
			]
		}
	],
	"nodes":[
		{
			"name":"place-head",
			"translation":[
				-0.03198767825961113,
				2.099998712539673,
				0
			]
		},
		{
			"name":"place-leg_l",
			"translation":[
				-0.4833206534385681,
				0.09999990463256836,
				0
			]
		},
		{
			"name":"place-leg_r",
			"translation":[
				0.4193449020385742,
				0.09999990463256836,
				0
			]
		},
		{
			"children":[
				0,
				1,
				2
			],
			"mesh":0,
			"name":"body2"
		}
	],
	"materials":[
		{
			"doubleSided":true,
			"name":"body",
			"pbrMetallicRoughness":{
				"baseColorFactor":[
					0.7592293620109558,
					0.3486836850643158,
					1,
					1
				],
				"metallicFactor":0,
				"roughnessFactor":0.5
			}
		}
	],
	"meshes":[
		{
			"name":"Cube.005",
			"primitives":[
				{
					"attributes":{
						"POSITION":0,
						"NORMAL":1,
						"TEXCOORD_0":2
					},
					"indices":3,
					"material":0
				}
			]
		}
	],
	"accessors":[
		{
			"bufferView":0,
			"componentType":5126,
			"count":356,
			"max":[
				0.9941213726997375,
				2.1000003814697266,
				0.5071961283683777
			],
			"min":[
				-0.9941213726997375,
				0.008724234066903591,
				-0.5071961879730225
			],
			"type":"VEC3"
		},
		{
			"bufferView":1,
			"componentType":5126,
			"count":356,
			"type":"VEC3"
		},
		{
			"bufferView":2,
			"componentType":5126,
			"count":356,
			"type":"VEC2"
		},
		{
			"bufferView":3,
			"componentType":5123,
			"count":1056,
			"type":"SCALAR"
		}
	],
	"bufferViews":[
		{
			"buffer":0,
			"byteLength":4272,
			"byteOffset":0,
			"target":34962
		},
		{
			"buffer":0,
			"byteLength":4272,
			"byteOffset":4272,
			"target":34962
		},
		{
			"buffer":0,
			"byteLength":2848,
			"byteOffset":8544,
			"target":34962
		},
		{
			"buffer":0,
			"byteLength":2112,
			"byteOffset":11392,
			"target":34963
		}
	],
	"buffers":[
		{
			"byteLength":13504,
			"uri":"body2.bin"
		}
	]
}
