{
	"asset":{
		"generator":"Khronos glTF Blender I/O v5.0.21",
		"version":"2.0"
	},
	"scene":0,
	"scenes":[
		{
			"name":"Scene",
			"nodes":[
				3
			]
		}
	],
	"nodes":[
		{
			"name":"place-head.001",
			"translation":[
				-0.03198767825961113,
				2.099998712539673,
				0
			]
		},
		{
			"name":"place-leg_l.001",
			"translation":[
				-0.4833206534385681,
				0.09999990463256836,
				0
			]
		},
		{
			"name":"place-leg_r.001",
			"translation":[
				0.4193449020385742,
				0.09999990463256836,
				0
			]
		},
		{
			"children":[
				0,
				1,
				2
			],
			"mesh":0,
			"name":"body3"
		}
	],
	"materials":[
		{
			"doubleSided":true,
			"name":"body",
			"pbrMetallicRoughness":{
				"baseColorFactor":[
					0.7592293620109558,
					0.3486836850643158,
					1,
					1
				],
				"metallicFactor":0,
				"roughnessFactor":0.5
			}
		}
	],
	"meshes":[
		{
			"name":"Cube.009",
			"primitives":[
				{
					"attributes":{
						"POSITION":0,
						"NORMAL":1,
						"TEXCOORD_0":2
					},
					"indices":3,
					"material":0
				}
			]
		}
	],
	"accessors":[
		{
			"bufferView":0,
			"componentType":5126,
			"count":433,
			"max":[
				0.989787220954895,
				2.1000003814697266,
				1.0503193140029907
			],
			"min":[
				-0.9897872805595398,
				0.008724234066903591,
				-0.5071963667869568
			],
			"type":"VEC3"
		},
		{
			"bufferView":1,
			"componentType":5126,
			"count":433,
			"type":"VEC3"
		},
		{
			"bufferView":2,
			"componentType":5126,
			"count":433,
			"type":"VEC2"
		},
		{
			"bufferView":3,
			"componentType":5123,
			"count":1248,
			"type":"SCALAR"
		}
	],
	"bufferViews":[
		{
			"buffer":0,
			"byteLength":5196,
			"byteOffset":0,
			"target":34962
		},
		{
			"buffer":0,
			"byteLength":5196,
			"byteOffset":5196,
			"target":34962
		},
		{
			"buffer":0,
			"byteLength":3464,
			"byteOffset":10392,
			"target":34962
		},
		{
			"buffer":0,
			"byteLength":2496,
			"byteOffset":13856,
			"target":34963
		}
	],
	"buffers":[
		{
			"byteLength":16352,
			"uri":"body3.bin"
		}
	]
}
