{
	"asset":{
		"generator":"Khronos glTF Blender I/O v5.0.21",
		"version":"2.0"
	},
	"scene":0,
	"scenes":[
		{
			"name":"Scene",
			"nodes":[
				0
			]
		}
	],
	"nodes":[
		{
			"mesh":0,
			"name":"ear"
		}
	],
	"materials":[
		{
			"doubleSided":true,
			"name":"head",
			"pbrMetallicRoughness":{
				"baseColorFactor":[
					0.9943643808364868,
					1,
					0.5503948926925659,
					1
				],
				"metallicFactor":0,
				"roughnessFactor":0.5
			}
		},
		{
			"doubleSided":true,
			"name":"ear",
			"pbrMetallicRoughness":{
				"baseColorFactor":[
					0.8000074625015259,
					0.21786880493164062,
					0.20776250958442688,
					1
				],
				"metallicFactor":0,
				"roughnessFactor":0.5
			}
		}
	],
	"meshes":[
		{
			"name":"Cube.003",
			"primitives":[
				{
					"attributes":{
						"POSITION":0,
						"NORMAL":1,
						"TEXCOORD_0":2
					},
					"indices":3,
					"material":0
				},
				{
					"attributes":{
						"POSITION":4,
						"NORMAL":5,
						"TEXCOORD_0":6
					},
					"indices":7,
					"material":1
				}
			]
		}
	],
	"accessors":[
		{
			"bufferView":0,
			"componentType":5126,
			"count":106,
			"max":[
				0.30092406272888184,
				0.16628265380859375,
				0.048350490629673004
			],
			"min":[
				-5.960464477539063e-08,
				-0.16628265380859375,
				-0.048350490629673004
			],
			"type":"VEC3"
		},
		{
			"bufferView":1,
			"componentType":5126,
			"count":106,
			"type":"VEC3"
		},
		{
			"bufferView":2,
			"componentType":5126,
			"count":106,
			"type":"VEC2"
		},
		{
			"bufferView":3,
			"componentType":5123,
			"count":288,
			"type":"SCALAR"
		},
		{
			"bufferView":4,
			"componentType":5126,
			"count":14,
			"max":[
				0.2700755000114441,
				0.1354341059923172,
				0.008202078752219677
			],
			"min":[
				0.030848488211631775,
				-0.1354341059923172,
				0.008202078752219677
			],
			"type":"VEC3"
		},
		{
			"bufferView":5,
			"componentType":5126,
			"count":14,
			"type":"VEC3"
		},
		{
			"bufferView":6,
			"componentType":5126,
			"count":14,
			"type":"VEC2"
		},
		{
			"bufferView":7,
			"componentType":5123,
			"count":36,
			"type":"SCALAR"
		}
	],
	"bufferViews":[
		{
			"buffer":0,
			"byteLength":1272,
			"byteOffset":0,
			"target":34962
		},
		{
			"buffer":0,
			"byteLength":1272,
			"byteOffset":1272,
			"target":34962
		},
		{
			"buffer":0,
			"byteLength":848,
			"byteOffset":2544,
			"target":34962
		},
		{
			"buffer":0,
			"byteLength":576,
			"byteOffset":3392,
			"target":34963
		},
		{
			"buffer":0,
			"byteLength":168,
			"byteOffset":3968,
			"target":34962
		},
		{
			"buffer":0,
			"byteLength":168,
			"byteOffset":4136,
			"target":34962
		},
		{
			"buffer":0,
			"byteLength":112,
			"byteOffset":4304,
			"target":34962
		},
		{
			"buffer":0,
			"byteLength":72,
			"byteOffset":4416,
			"target":34963
		}
	],
	"buffers":[
		{
			"byteLength":4488,
			"uri":"ear.bin"
		}
	]
}
