{
	"asset":{
		"generator":"Khronos glTF Blender I/O v5.0.21",
		"version":"2.0"
	},
	"scene":0,
	"scenes":[
		{
			"name":"Scene",
			"nodes":[
				0
			]
		}
	],
	"nodes":[
		{
			"mesh":0,
			"name":"ear2"
		}
	],
	"materials":[
		{
			"doubleSided":true,
			"name":"Material.012",
			"pbrMetallicRoughness":{
				"baseColorFactor":[
					0.9943643808364868,
					1,
					0.5503948926925659,
					1
				],
				"metallicFactor":0,
				"roughnessFactor":0.5
			}
		},
		{
			"doubleSided":true,
			"name":"Material.011",
			"pbrMetallicRoughness":{
				"baseColorFactor":[
					0.8000074625015259,
					0.21786880493164062,
					0.20776250958442688,
					1
				],
				"metallicFactor":0,
				"roughnessFactor":0.5
			}
		}
	],
	"meshes":[
		{
			"name":"Cube.006",
			"primitives":[
				{
					"attributes":{
						"POSITION":0,
						"NORMAL":1,
						"TEXCOORD_0":2
					},
					"indices":3,
					"material":0
				},
				{
					"attributes":{
						"POSITION":4,
						"NORMAL":5,
						"TEXCOORD_0":6
					},
					"indices":7,
					"material":1
				}
			]
		}
	],
	"accessors":[
		{
			"bufferView":0,
			"componentType":5126,
			"count":33,
			"max":[
				0.34752392768859863,
				0.2946259379386902,
				0.05541682988405228
			],
			"min":[
				0,
				-0.17376196384429932,
				-0.05541682988405228
			],
			"type":"VEC3"
		},
		{
			"bufferView":1,
			"componentType":5126,
			"count":33,
			"type":"VEC3"
		},
		{
			"bufferView":2,
			"componentType":5126,
			"count":33,
			"type":"VEC2"
		},
		{
			"bufferView":3,
			"componentType":5123,
			"count":57,
			"type":"SCALAR"
		},
		{
			"bufferView":4,
			"componentType":5126,
			"count":3,
			"max":[
				0.2946316599845886,
				0.2557705044746399,
				0.040852323174476624
			],
			"min":[
				0.019324883818626404,
				-0.11528412997722626,
				0.040852323174476624
			],
			"type":"VEC3"
		},
		{
			"bufferView":5,
			"componentType":5126,
			"count":3,
			"type":"VEC3"
		},
		{
			"bufferView":6,
			"componentType":5126,
			"count":3,
			"type":"VEC2"
		},
		{
			"bufferView":7,
			"componentType":5123,
			"count":3,
			"type":"SCALAR"
		}
	],
	"bufferViews":[
		{
			"buffer":0,
			"byteLength":396,
			"byteOffset":0,
			"target":34962
		},
		{
			"buffer":0,
			"byteLength":396,
			"byteOffset":396,
			"target":34962
		},
		{
			"buffer":0,
			"byteLength":264,
			"byteOffset":792,
			"target":34962
		},
		{
			"buffer":0,
			"byteLength":114,
			"byteOffset":1056,
			"target":34963
		},
		{
			"buffer":0,
			"byteLength":36,
			"byteOffset":1172,
			"target":34962
		},
		{
			"buffer":0,
			"byteLength":36,
			"byteOffset":1208,
			"target":34962
		},
		{
			"buffer":0,
			"byteLength":24,
			"byteOffset":1244,
			"target":34962
		},
		{
			"buffer":0,
			"byteLength":6,
			"byteOffset":1268,
			"target":34963
		}
	],
	"buffers":[
		{
			"byteLength":1276,
			"uri":"ear2.bin"
		}
	]
}
